<?xml version="1.0" encoding="UTF-8"?>
<svg id="Layer_2" data-name="Layer 2" xmlns="http://www.w3.org/2000/svg" viewBox="0 0 3399.57 600">
  <defs>
    <style>
      .cls-1 {
        fill: #0f52ba;
      }
    </style>
  </defs>
  <g id="Layer_1-2" data-name="Layer 1">
    <g>
      <path class="cls-1" d="M525,150c-41.46,0-75-33.54-75-75S416.42,0,375,0H75C33.58,0,0,33.58,0,75v300c0,41.42,33.58,75,75,75s75,33.54,75,75,33.58,75,75,75h300c41.42,0,75-33.58,75-75V225c0-41.42-33.58-75-75-75ZM450,187.5v187.5c0,41.42-33.58,75-75,75H112.5c20.71,0,37.5-16.79,37.5-37.5v-187.5c0-41.42,33.58-75,75-75h262.5c-20.71,0-37.5,16.79-37.5,37.5Z"/>
      <g>
        <path class="cls-1" d="M1031.72,600c-27.04,0-51.91-4.06-74.62-12.17-22.71-8.11-42.18-19.59-58.4-34.47-14.95-13.7-26.7-29.59-35.21-47.67-1.19-2.53-.06-5.55,2.5-6.68l69.95-31.01c2.32-1.03,5.02-.14,6.31,2.03,8.03,13.45,19.33,24.88,33.91,34.26,15.94,10.28,33.66,15.41,53.12,15.41,21.09,0,37.98-3.65,50.69-10.95,12.7-7.3,19.06-17.44,19.06-30.42s-4.87-22.03-14.6-28.79c-9.73-6.76-23.52-12.29-41.36-16.63l-38.12-10.54c-38.4-9.73-68.41-25.27-90.03-46.64-21.63-21.35-32.44-45.83-32.44-73.4,0-40.55,13.1-71.91,39.34-94.08,26.22-22.17,63.94-33.25,113.14-33.25,24.86,0,47.71,3.65,68.54,10.95,20.81,7.3,38.79,17.58,53.94,30.82,13.87,12.15,23.88,26.21,30.04,42.22.95,2.46-.22,5.24-2.62,6.32l-66.69,30.12c-2.44,1.1-5.3.07-6.51-2.32-5.77-11.41-15.39-20.36-28.85-26.86-15.14-7.3-31.91-10.95-50.29-10.95s-32.72,3.93-42.99,11.76c-10.28,7.84-15.41,18.79-15.41,32.85,0,8.11,4.59,15.55,13.79,22.3,9.19,6.77,22.43,12.31,39.74,16.63l47.85,11.36c26.49,6.49,48.12,16.63,64.89,30.42,16.75,13.79,29.2,29.2,37.31,46.23,8.11,17.03,12.17,34.2,12.17,51.5,0,24.33-6.89,45.7-20.68,64.07-13.79,18.39-32.58,32.58-56.37,42.58-23.8,10-50.83,15-81.11,15Z"/>
        <path class="cls-1" d="M1313.84,108.26c-14.88,0-27.69-5.37-38.43-16.12-10.74-10.74-16.12-23.55-16.12-38.43s5.37-27.54,16.12-38.02c10.74-10.46,23.55-15.7,38.43-15.7s27.69,5.24,38.43,15.7c10.74,10.47,16.12,23.14,16.12,38.02s-5.37,27.69-16.12,38.43c-10.74,10.74-23.55,16.12-38.43,16.12ZM1267.56,594.92V191.86c0-2.81,2.28-5.08,5.08-5.08h81.57c2.81,0,5.08,2.28,5.08,5.08v403.06c0,2.81-2.28,5.08-5.08,5.08h-81.57c-2.81,0-5.08-2.28-5.08-5.08Z"/>
        <path class="cls-1" d="M1462.03,594.9V190.07c0-2.82,2.29-5.1,5.1-5.1h77.3c2.68,0,4.9,2.07,5.09,4.75l2.77,39.27c.33,4.74,6.39,6.48,9.21,2.65,11.96-16.25,26.53-29.18,43.72-38.78,21.3-11.89,45.78-17.85,73.46-17.85,33.2,0,61.56,6.64,85.08,19.92,23.51,13.28,41.5,33.9,53.96,61.84,12.45,27.95,18.68,64.33,18.68,109.16v228.98c0,2.82-2.29,5.1-5.1,5.1h-82.76c-2.82,0-5.1-2.29-5.1-5.1v-207.39c0-33.2-3.73-58.79-11.21-76.78-7.47-17.98-17.99-30.57-31.54-37.77-13.57-7.19-29.47-10.79-47.73-10.79-31-.54-55.07,9.69-72.22,30.71-17.16,21.04-25.73,51.19-25.73,90.48v211.55c0,2.82-2.29,5.1-5.1,5.1h-82.76c-2.82,0-5.1-2.29-5.1-5.1Z"/>
        <path class="cls-1" d="M2086.2,600c-42.82,0-75.48-10.7-97.97-32.11-22.5-21.41-33.74-52.16-33.74-92.28v-208.82c0-2.76-2.24-5-5-5h-57.48c-2.76,0-5-2.24-5-5v-68.05c0-2.76,2.24-5,5-5h57.48c2.76,0,5-2.24,5-5V61.91c0-2.76,2.24-5,5-5h80.24c2.76,0,5,2.24,5,5v116.83c0,2.76,2.24,5,5,5h99.76c2.76,0,5,2.24,5,5v68.05c0,2.76-2.24,5-5,5h-99.76c-2.76,0-5,2.24-5,5v191.75c0,18.98,4.47,33.33,13.41,43.09,8.94,9.76,22.08,14.63,39.43,14.63,5.41,0,11.38-1.08,17.89-3.25,5.21-1.73,10.95-4.69,17.21-8.86,2.53-1.69,5.98-.78,7.3,1.97l28.9,59.92c1.09,2.26.33,4.97-1.76,6.36-12.89,8.56-25.76,15.19-38.64,19.89-14.1,5.14-28.19,7.72-42.28,7.72Z"/>
        <path class="cls-1" d="M2420.33,600c-39.48,0-74.49-9.06-105.03-27.17-30.55-18.11-54.62-43.11-72.19-75.02-17.58-31.9-26.36-68.66-26.36-110.31s8.92-78.4,26.76-110.31c17.84-31.9,42.3-56.9,73.4-75.02,31.09-18.11,66.63-27.17,106.66-27.17,36.22,0,68.94,9.33,98.14,27.98s52.31,45.56,69.35,80.7c16.44,33.93,24.94,74.13,25.52,120.64.03,2.79-2.2,5.07-4.99,5.07h-295.26c-2.97,0-5.3,2.58-4.96,5.53,3.57,31.44,15.97,56.37,37.18,74.77,22.43,19.47,49.07,29.2,79.89,29.2,24.86,0,45.42-5.54,61.64-16.63,15.01-10.25,27.01-23.41,36.01-39.46,1.24-2.22,3.95-3.15,6.29-2.16l71.06,30.15c2.74,1.16,3.86,4.44,2.41,7.04-10.93,19.61-24.52,36.9-40.75,51.88-17.58,16.22-38.4,28.67-62.45,37.31-24.07,8.64-51.5,12.98-82.32,12.98ZM2322.22,339.65h190.7c2.99,0,5.33-2.61,4.96-5.57-2.18-16.98-7.66-31.21-16.45-42.69-9.73-12.7-21.63-22.3-35.69-28.79-14.07-6.49-28.93-9.73-44.61-9.73s-30.42,3.12-45.83,9.33c-15.41,6.22-28.53,15.82-39.34,28.79-9.73,11.67-15.96,25.96-18.68,42.87-.49,3.04,1.85,5.79,4.93,5.79Z"/>
        <path class="cls-1" d="M2834.96,600c-27.04,0-51.91-4.06-74.62-12.17-22.71-8.11-42.18-19.59-58.4-34.47-14.95-13.7-26.7-29.59-35.21-47.67-1.19-2.53-.06-5.55,2.5-6.68l69.95-31.01c2.32-1.03,5.02-.14,6.31,2.03,8.03,13.45,19.33,24.88,33.91,34.26,15.94,10.28,33.66,15.41,53.12,15.41,21.09,0,37.98-3.65,50.69-10.95,12.7-7.3,19.06-17.44,19.06-30.42s-4.87-22.03-14.6-28.79c-9.73-6.76-23.52-12.29-41.36-16.63l-38.12-10.54c-38.4-9.73-68.41-25.27-90.03-46.64-21.63-21.35-32.44-45.83-32.44-73.4,0-40.55,13.1-71.91,39.34-94.08,26.22-22.17,63.94-33.25,113.14-33.25,24.86,0,47.71,3.65,68.53,10.95,20.81,7.3,38.79,17.58,53.94,30.82,13.87,12.15,23.88,26.21,30.04,42.22.95,2.46-.22,5.24-2.62,6.32l-66.69,30.12c-2.44,1.1-5.3.07-6.51-2.32-5.77-11.41-15.39-20.36-28.85-26.86-15.14-7.3-31.91-10.95-50.29-10.95s-32.72,3.93-42.99,11.76c-10.28,7.84-15.41,18.79-15.41,32.85,0,8.11,4.59,15.55,13.79,22.3,9.19,6.77,22.43,12.31,39.74,16.63l47.85,11.36c26.49,6.49,48.12,16.63,64.89,30.42,16.75,13.79,29.2,29.2,37.31,46.23,8.11,17.03,12.17,34.2,12.17,51.5,0,24.33-6.89,45.7-20.68,64.07-13.79,18.39-32.58,32.58-56.37,42.58-23.8,10-50.83,15-81.11,15Z"/>
        <path class="cls-1" d="M3196.81,600c-48.66,0-86.38-10.81-113.14-32.44-26.76-21.62-40.15-52.17-40.15-91.65,0-42.18,14.19-74.34,42.58-96.52,28.39-22.16,67.99-33.25,118.82-33.25h97.37c3.01,0,5.35-2.66,4.95-5.64-3.65-26.98-11.81-47.81-24.45-62.49-13.52-15.68-33.53-23.52-60.02-23.52-19.47,0-36.5,4.06-51.1,12.17-13.62,7.57-25.37,19.14-35.22,34.71-1.25,1.98-3.72,2.82-5.92,2.01l-70.4-25.86c-2.82-1.04-4.1-4.32-2.71-6.99,8.31-15.94,18.96-30.88,31.93-44.82,14.32-15.41,32.44-27.7,54.34-36.9,21.9-9.19,48.26-13.79,79.08-13.79,39.46,0,72.45,7.71,98.95,23.12,26.49,15.41,46.09,37.45,58.8,66.1,12.7,28.67,19.06,63.26,19.06,103.82l-2.38,217.3c-.03,2.73-2.25,4.93-4.99,4.93h-73.86c-2.66,0-4.85-2.09-4.98-4.74l-1.45-29.5c-.23-4.66-6.15-6.47-8.96-2.75-9.8,12.99-22.07,23.43-36.8,31.31-19.2,10.27-42.31,15.41-69.35,15.41ZM3208.16,523.76c20,0,37.71-4.46,53.13-13.38s27.3-20.95,35.69-36.09c8.38-15.13,12.57-31.9,12.57-50.29v-3.12c0-2.75-2.23-4.99-4.99-4.99h-70.44c-36.23,0-61.64,5.01-76.24,15-14.6,10.01-21.9,24.21-21.9,42.58,0,15.69,6.35,27.98,19.06,36.9,12.7,8.92,30.42,13.38,53.12,13.38Z"/>
      </g>
    </g>
  </g>
</svg>